<?xml version="1.0" encoding="utf-8"?>
<!-- Generator: Adobe Illustrator 27.1.0, SVG Export Plug-In . SVG Version: 6.00 Build 0)  -->
<svg version="1.1" id="Capa_1" xmlns="http://www.w3.org/2000/svg" xmlns:xlink="http://www.w3.org/1999/xlink" x="0px" y="0px"
	 viewBox="0 0 1080 1920" style="enable-background:new 0 0 1080 1920;" xml:space="preserve">
<style type="text/css">
	.st0{fill:#00B156;stroke:#000000;stroke-width:6;stroke-linecap:round;stroke-linejoin:round;stroke-miterlimit:10;}
	.st1{stroke:#000000;stroke-width:6;stroke-linecap:round;stroke-linejoin:round;stroke-miterlimit:10;}
	.st2{fill:#FFDA1F;stroke:#000000;stroke-width:6;stroke-linecap:round;stroke-linejoin:round;stroke-miterlimit:10;}
	.st3{fill:none;stroke:#000000;stroke-width:6;stroke-linecap:round;stroke-linejoin:round;stroke-miterlimit:10;}
</style>
<path class="st0" d="M859.37,836.97c-2.63,16.97-53.71,55.71-53.71,55.71h38.39L859.37,836.97z"/>
<path class="st0" d="M383.64,1351.61c-1.75-8.76-3.72-17.53-5.92-26.29"/>
<path class="st0" d="M482.42,641.78c-2.04-1.06-4.05-2.01-6.1-2.96"/>
<path class="st0" d="M804.96,244.45c-7.78-194.63-388.89-312.21-487.49-52.95s76.68,306.73,80.33,387.07s-241,277.52-299.43,449.14
	s124.15,306.73,167.97,335.95s69.38,215.44,58.43,339.6c0,0-12.78,96.77-27.39,122.33s-40.17,69.38,3.65,73.03
	c43.82,3.65,138.76,14.61,146.06,0s-94.94-21.91-102.24-58.43c-6.35-31.73,67.26-220.66,48.31-422.96
	c-2.01-21.8-5.11-43.71-9.53-65.62c23.92-16.76,43.89-33.19,60.43-49.3c81.72-79.49,79.71-151.47,53.86-219.53
	c-44.73-8.76-89.35-24.83-127.11-51.27c-103.34-72.34-87.86-160.16-67.19-170.49c33.34-16.65,62,10.33,82.67,41.34
	c9.28,13.88,29.94,45.43,59.27,74.6c-17.89-33.92-33.63-67.37-38.63-100.78c-0.15-1.06-0.29-2.12-0.44-3.14
	c-14.57-106.41,44.04-192.99,75.92-231.25c45.46,22.6,91.03,62.3,139.97,51.82c32.28-6.94,101-75.04,144.49-193.31
	c-23.01,14.79-53.5,21.73-93.88,15.12c0,0-13.88-220.12,132-214.2C805.73,282.83,805.73,263.92,804.96,244.45z M579.15,504.37
	c-236.59-59.7-101.66-266.57-101.66-266.57C718.57,287.1,579.15,504.37,579.15,504.37z"/>
<path class="st0" d="M472.67,1796.37c-43.82-14.61,7.3-32.86,0-186.23c-5.15-108.42-52.29-167.57-79.49-192.91
	c-2.01-21.8-5.11-43.71-9.53-65.62c23.92-16.76,43.89-33.19,60.43-49.3c123.13,63.5,72.26,389.95,68.76,435.63
	c-3.65,47.47,113.2,32.86,120.5,58.43S516.49,1810.98,472.67,1796.37z"/>
<path class="st1" d="M579.15,504.37c-236.59-59.7-101.66-266.57-101.66-266.57C718.57,287.1,579.15,504.37,579.15,504.37z"/>
<path class="st1" d="M805,301.2c-2.81,76.68-17.67,143.43-38.12,199.08c-23.01,14.79-53.5,21.73-93.88,15.12
	C672.99,515.4,659.12,295.28,805,301.2z"/>
<line class="st0" x1="586.99" y1="583.59" x2="639.52" y2="599.11"/>
<path class="st0" d="M976.59,1014.94c-27.13,6.02-61.82,10.33-87.42,13.07c-5.4,0.58-10.41,1.1-14.83,1.53
	c-36.52,3.65-46.45-10.19-91.29,10.95c-9.75,4.6-10.37,5.44-21,10.59c-12.12,5.92-29.91,15.92-65.73,26.95
	c-42.65,13.11-120.65,19.97-198.39,4.75c-44.73-8.76-89.35-24.83-127.11-51.27c-103.34-72.34-87.86-160.16-67.19-170.49
	c33.34-16.65,62,10.33,82.67,41.34c9.28,13.88,29.94,45.43,59.27,74.6c36.08,35.93,85.23,68.28,142.23,59.74
	c103.34-15.52,175.68-46.52,180.86-72.34c3.47-17.42,20.78-51.38,36.99-71.68c2.3-2.88,4.56-5.44,6.76-7.67v-0.04
	c5.4-5.48,10.41-8.8,14.46-8.8c4.09,0.04,7.74,0.62,10.92,1.72c18.15,5.92,22.6,26,23.59,32.65c-5.4,0.77-10.55,1.5-15.26,2.15H841
	c0,0-5.37-13.33-10.26-5.51c-1.57,2.48-2.15,5.19-1.97,7.81c0.51,6.94,6.57,13.15,14.42,12.96c17.31-0.4,43.82-1.42,63.21-4.16
	c1.75-0.26,3.36-0.88,5.15-1.06c28.52-2.74,65.87-16.91,72.34-13.69c7.3,3.65,0,21.91-54.77,32.86
	c-54.12,10.81-54.77,21.91-47.47,21.91s69.38,0,105.9-10.95c0.18-0.04,5.37-5.26,9.9-7.96c3.1-1.86,5.88-2.56,6.68,0.22
	c1.64,5.7,1.24,14.93-5.66,21.91c-3.21,3.29-7.92,6.1-14.57,7.74c-29.21,7.3-102.24,14.61-91.29,21.91
	c10.95,7.3,87.56-3.65,96.73-7.3C998.5,985.72,1009.45,1007.63,976.59,1014.94z"/>
<path class="st0" d="M846.12,912.69c-6.68,0.91-12.56,1.68-17.35,2.3c-0.18-2.63,0.4-5.33,1.97-7.81
	c4.89-7.81,10.26,5.51,10.26,5.51H846.12z"/>
<path class="st2" d="M997.44,944.9c-4.53,2.7-9.71,7.92-9.9,7.96c-36.52,10.95-98.59,10.95-105.9,10.95s-6.65-11.1,47.47-21.91
	c54.77-10.95,62.08-29.21,54.77-32.86c-6.46-3.21-43.82,10.95-72.34,13.69c-1.79,0.18-3.4,0.8-5.15,1.06
	c-19.39,2.74-45.9,3.76-63.21,4.16c-7.85,0.18-13.91-6.03-14.42-12.96c4.78-0.62,10.66-1.39,17.35-2.3
	c4.71-0.66,9.86-1.39,15.26-2.15c53.2-7.52,133.47-19.75,133.47-19.75L997.44,944.9z"/>
<path class="st2" d="M989.33,989.38c-9.17,3.65-85.78,14.61-96.73,7.3c-10.95-7.3,62.08-14.61,91.29-21.91
	c6.65-1.64,11.36-4.46,14.57-7.74L1001,1017l-111.83,11.01c25.6-2.74,60.29-7.05,87.42-13.07
	C1009.45,1007.63,998.5,985.72,989.33,989.38z"/>
<path class="st2" d="M994.84,890.78c0,0-80.26,12.23-133.47,19.75c-0.99-6.65-5.44-26.73-23.59-32.65l-0.73-47.36l21.76,8.33
	l24.65,9.38c-5.4,36.3,2.74,56.2,16.07,42.54c7.38-7.6,12.12-20.12,11.06-32.17L994.84,890.78z"/>
<path class="st0" d="M805.66,892.68c-16.21,20.3-33.52,54.26-36.99,71.68c-5.19,25.82-77.52,56.82-180.86,72.34
	c-57,8.54-106.15-23.81-142.23-59.74c-17.89-33.92-33.63-67.37-38.63-100.78c-0.15-1.06-0.29-2.12-0.44-3.14
	c38.85,54.66,144.38,174.98,275.66,94.43C764.43,916.96,794.52,899.84,805.66,892.68z"/>
<path class="st0" d="M899.54,890.78c-13.33,13.66-21.47-6.24-16.07-42.54l-24.65-9.38c0,0,3.83-21.11,31.59-8.33
	c13.33,6.13,19.24,16.91,20.19,28.08C911.66,870.66,906.91,883.19,899.54,890.78z"/>
<polyline class="st3" points="959.75,896.09 959.74,896.09 907.15,879.12 "/>
<polyline class="st3" points="881.8,870.94 852.62,861.53 850.23,860.76 "/>
<polyline class="st3" points="913.11,903.04 913.1,903.04 850.23,882.76 "/>
</svg>
