<?xml version="1.0" encoding="utf-8"?>
<!-- Generator: Adobe Illustrator 27.1.0, SVG Export Plug-In . SVG Version: 6.00 Build 0)  -->
<svg version="1.1" id="Capa_1" xmlns="http://www.w3.org/2000/svg" xmlns:xlink="http://www.w3.org/1999/xlink" x="0px" y="0px"
	 viewBox="0 0 150 150" style="enable-background:new 0 0 150 150;" xml:space="preserve">
<g>
	<path d="M110,45H40c-4.97,0-9-4.03-9-9v0c0-4.97,4.03-9,9-9h70c4.97,0,9,4.03,9,9v0C119,40.97,114.97,45,110,45z"/>
</g>
<g>
	<path d="M110,123H40c-4.97,0-9-4.03-9-9v0c0-4.97,4.03-9,9-9h70c4.97,0,9,4.03,9,9v0C119,118.97,114.97,123,110,123z"/>
</g>
<g>
	<path d="M134,84H16c-4.97,0-9-4.03-9-9v0c0-4.97,4.03-9,9-9h118c4.97,0,9,4.03,9,9v0C143,79.97,138.97,84,134,84z"/>
</g>
</svg>
